<?xml version="1.0" encoding="UTF-8" standalone="no"?>
<svg
   width="500"
   zoomAndPan="magnify"
   viewBox="0 0 375 262.49999"
   height="350"
   preserveAspectRatio="xMidYMid"
   version="1.0"
   id="svg31"
   sodipodi:docname="BIGCONFIG.svg"
   inkscape:version="1.4.2 (ebf0e940, 2025-05-08)"
   xmlns:inkscape="http://www.inkscape.org/namespaces/inkscape"
   xmlns:sodipodi="http://sodipodi.sourceforge.net/DTD/sodipodi-0.dtd"
   xmlns="http://www.w3.org/2000/svg"
   xmlns:svg="http://www.w3.org/2000/svg">
  <sodipodi:namedview
     id="namedview31"
     pagecolor="#ffffff"
     bordercolor="#000000"
     borderopacity="0.25"
     inkscape:showpageshadow="2"
     inkscape:pageopacity="0.0"
     inkscape:pagecheckerboard="0"
     inkscape:deskcolor="#d1d1d1"
     inkscape:zoom="1.664"
     inkscape:cx="250"
     inkscape:cy="250"
     inkscape:window-width="2240"
     inkscape:window-height="1231"
     inkscape:window-x="0"
     inkscape:window-y="0"
     inkscape:window-maximized="0"
     inkscape:current-layer="svg31" />
  <defs
     id="defs2">
    <g
       id="g1" />
    <clipPath
       id="ddb2514335">
      <path
         d="M 119.30859,140 H 188 v 60.01953 h -68.69141 z m 0,0"
         clip-rule="nonzero"
         id="path1" />
    </clipPath>
    <clipPath
       id="79cf45d582">
      <path
         d="m 187,108.51953 h 68.80859 V 169 H 187 Z m 0,0"
         clip-rule="nonzero"
         id="path2" />
    </clipPath>
  </defs>
  <g
     id="g31"
     transform="matrix(2.6788023,0,0,2.6788023,-299.09503,-331.54731)">
    <g
       clip-path="url(#ddb2514335)"
       id="g3"
       transform="translate(-5.8593749,18.479567)">
      <path
         fill="#f97316"
         d="m 165.23047,182.66406 v 8.30078 L 127.63672,173.5 v -6.73438 l 37.59375,-17.46875 v 8.30469 l -28.42969,12.45313 v 0.15625 z m 22.32812,-42.58984 H 124.6875 c -2.96875,0 -5.375,2.40625 -5.375,5.375 v 49.36719 c 0,2.96875 2.40625,5.375 5.375,5.375 h 45.41797 l 17.45312,-60.11719"
         fill-opacity="1"
         fill-rule="nonzero"
         id="path3" />
    </g>
    <g
       clip-path="url(#79cf45d582)"
       id="g4"
       transform="translate(-5.8593749,18.479567)">
      <path
         fill="#facc15"
         d="m 247.37891,142.21094 -37.59375,17.23047 v -8.30469 l 29.05468,-12.45313 v -0.15625 l -29.05468,-12.45312 v -8.30078 l 37.59375,17.23047 z m -42.36719,-33.66406 -17.45313,60.11718 h 62.76953 c 2.96485,0 5.3711,-2.40625 5.3711,-5.375 v -49.36718 c 0,-2.96875 -2.40625,-5.375 -5.3711,-5.375 h -45.3164"
         fill-opacity="1"
         fill-rule="nonzero"
         id="path4" />
    </g>
  </g>
</svg>
