<?xml version="1.0" encoding="UTF-8" standalone="no"?>
<svg
   width="1750"
   zoomAndPan="magnify"
   viewBox="0 0 1312.5 262.49999"
   height="350"
   preserveAspectRatio="xMidYMid"
   version="1.0"
   id="svg31"
   sodipodi:docname="logo-dark.svg"
   inkscape:version="1.4.2 (ebf0e940, 2025-05-08)"
   xmlns:inkscape="http://www.inkscape.org/namespaces/inkscape"
   xmlns:sodipodi="http://sodipodi.sourceforge.net/DTD/sodipodi-0.dtd"
   xmlns="http://www.w3.org/2000/svg"
   xmlns:svg="http://www.w3.org/2000/svg">
  <sodipodi:namedview
     id="namedview31"
     pagecolor="#ffffff"
     bordercolor="#000000"
     borderopacity="0.25"
     inkscape:showpageshadow="2"
     inkscape:pageopacity="0.0"
     inkscape:pagecheckerboard="0"
     inkscape:deskcolor="#d1d1d1"
     inkscape:zoom="0.306"
     inkscape:cx="1153.5948"
     inkscape:cy="143.79085"
     inkscape:window-width="2240"
     inkscape:window-height="1231"
     inkscape:window-x="0"
     inkscape:window-y="0"
     inkscape:window-maximized="0"
     inkscape:current-layer="g2" />
  <defs
     id="defs2">
    <g
       id="g1" />
    <clipPath
       id="ddb2514335">
      <path
         d="M 119.30859,140 H 188 v 60.01953 h -68.69141 z m 0,0"
         clip-rule="nonzero"
         id="path1" />
    </clipPath>
    <clipPath
       id="79cf45d582">
      <path
         d="m 187,108.51953 h 68.80859 V 169 H 187 Z m 0,0"
         clip-rule="nonzero"
         id="path2" />
    </clipPath>
  </defs>
  <g
     id="g31"
     transform="matrix(2.6788023,0,0,2.6788023,-299.09503,-331.54731)">
    <g
       clip-path="url(#ddb2514335)"
       id="g3"
       transform="translate(-5.8593749,18.479567)">
      <path
         fill="#f97316"
         d="m 165.23047,182.66406 v 8.30078 L 127.63672,173.5 v -6.73438 l 37.59375,-17.46875 v 8.30469 l -28.42969,12.45313 v 0.15625 z m 22.32812,-42.58984 H 124.6875 c -2.96875,0 -5.375,2.40625 -5.375,5.375 v 49.36719 c 0,2.96875 2.40625,5.375 5.375,5.375 h 45.41797 l 17.45312,-60.11719"
         fill-opacity="1"
         fill-rule="nonzero"
         id="path3" />
    </g>
    <g
       clip-path="url(#79cf45d582)"
       id="g4"
       transform="translate(-5.8593749,18.479567)">
      <path
         fill="#facc15"
         d="m 247.37891,142.21094 -37.59375,17.23047 v -8.30469 l 29.05468,-12.45313 v -0.15625 l -29.05468,-12.45312 v -8.30078 l 37.59375,17.23047 z m -42.36719,-33.66406 -17.45313,60.11718 h 62.76953 c 2.96485,0 5.3711,-2.40625 5.3711,-5.375 v -49.36718 c 0,-2.96875 -2.40625,-5.375 -5.3711,-5.375 h -45.3164"
         fill-opacity="1"
         fill-rule="nonzero"
         id="path4" />
    </g>
  </g>
  <g
     id="g2"
     transform="translate(62.079175)">
    <path
       style="font-weight:bold;font-size:144px;font-family:Now;-inkscape-font-specification:'Now, Bold';fill:#f97316;stroke-width:0.75;fill-opacity:1"
       d="m 451.58096,130.53 c 8.1,-4.32 13.32,-11.88 13.32,-23.22 0,-19.08 -14.4,-30.06 -32.58,-30.06 h -45.72 v 108 h 49.86 c 18,0 32.04,-10.44 32.04,-29.52 0,-13.14 -6.84,-21.24 -16.92,-25.2 z m -10.44,-20.7 c 0,6.3 -5.22,11.7 -11.7,11.7 h -19.08 V 98.31 h 19.08 c 6.48,0 11.7,5.04 11.7,11.52 z m -8.1,54.36 h -22.68 v -23.22 h 22.68 c 6.66,0 11.7,5.4 11.7,11.7 0,6.48 -5.04,11.52 -11.7,11.52 z m 52.19987,21.06 h 23.76 v -108 h -23.76 z m 97.19993,-59.22 v 18.54 h 29.7 c -5.04,11.34 -16.2,18.9 -29.52,18.9 -18.18,0 -32.22,-14.04 -32.22,-32.22 0,-18.18 14.04,-32.22 32.22,-32.22 12.78,0 23.22,6.84 28.62,17.1 l 20.52,-10.62 c -9.36,-17.64 -27.9,-29.7 -49.14,-29.7 -30.78,0 -55.44,24.84 -55.44,55.44 0,30.6 24.66,55.44 55.44,55.44 30.6,0 55.44,-24.84 55.44,-55.44 v -5.22 z m 124.55997,60.66 c 21.42,0 39.96,-12.06 49.14,-29.7 l -20.52,-10.62 c -5.22,10.26 -15.84,17.1 -28.62,17.1 -18.18,0 -32.04,-14.04 -32.04,-32.22 0,-18.18 13.86,-32.22 32.04,-32.22 12.78,0 23.4,6.84 28.62,17.1 l 20.52,-10.62 c -9.18,-17.64 -27.72,-29.7 -49.14,-29.7 -30.6,0 -55.44,24.84 -55.44,55.44 0,30.6 24.84,55.44 55.44,55.44 z m 115.92004,0 c 30.78,0 55.44,-24.84 55.44,-55.44 0,-30.6 -24.66,-55.44 -55.44,-55.44 -30.6,0 -55.44,24.84 -55.44,55.44 0,30.6 24.84,55.44 55.44,55.44 z m 0,-23.22 c -18.18,0 -32.04,-14.04 -32.04,-32.22 0,-18.18 13.86,-32.22 32.04,-32.22 18.36,0 32.22,14.04 32.22,32.22 0,18.18 -13.86,32.22 -32.22,32.22 z M 973.40084,77.25 v 71.46 l -53.1,-71.46 h -24.48 v 108 h 23.76 v -71.64 l 52.92,71.64 h 24.48 v -108 z M 1084.2808,98.13 V 77.25 h -64.98 v 108 h 23.76 v -43.56 h 35.28 v -20.88 h -35.28 V 98.13 Z m 13.3201,87.12 h 23.76 v -108 h -23.76 z m 97.1999,-59.22 v 18.54 h 29.7 c -5.04,11.34 -16.2,18.9 -29.52,18.9 -18.18,0 -32.22,-14.04 -32.22,-32.22 0,-18.18 14.04,-32.22 32.22,-32.22 12.78,0 23.22,6.84 28.62,17.1 l 20.52,-10.62 c -9.36,-17.64 -27.9,-29.7 -49.14,-29.7 -30.78,0 -55.44,24.84 -55.44,55.44 0,30.6 24.66,55.44 55.44,55.44 30.6,0 55.44,-24.84 55.44,-55.44 v -5.22 z"
       id="text1"
       aria-label="BIGCONFIG" />
  </g>
</svg>
